# xmcd
#
# Track frame offsets:
#	150
#	22920
#	35115
#	48762
#	61292
#	74335
#	87797
#	102292
#	116585
#	132037
#	144287
#	158647
#
# Disc length: 2251
#
# Revision: 1
# Processed by: cddbd v1.5.1PL0 Copyright (c) Steve Scherf et al.
# Submitted via: OrangeCD 4.2
# Normalized: r0:DSETVAR1,TDELIM( - )
#
DISCID=9508c90c
DTITLE=Various Artist - 24 Blues Classics - CD 1
DYEAR=1993
DGENRE=Blues
TTITLE0=B. B. King - Everyday (I Have The Blues)
TTITLE1=John Lee Hooker - I'm In The Mood
TTITLE2=Lightning Hopkins - Mojo Hand
TTITLE3=Little Walter - Juke
TTITLE4=Muddy Waters - I'm Your Hoochie Coochie Man
TTITLE5=B. B. King - When My Heart Beats Like A Hammer
TTITLE6=Howlin' Wolf - I Walked From Dallas
TTITLE7=Muddy Waters - I Got My Mojo Working
TTITLE8=John Lee Hooker - Tupelo
TTITLE9=Elmor James - Mean Mistretin' Mama
TTITLE10=Sonny Boy Williamson - Help Me
TTITLE11=Muddy Waters - I Feel So Good
EXTD=
EXTT0=
EXTT1=
EXTT2=
EXTT3=
EXTT4=
EXTT5=
EXTT6=
EXTT7=
EXTT8=
EXTT9=
EXTT10=
EXTT11=
PLAYORDER=
